<svg xmlns="http://www.w3.org/2000/svg" viewBox="0 0 1235 650">
  <!-- Red and white stripes -->
  <rect width="1235" height="650" fill="#B22234"/>
  <rect y="50" width="1235" height="50" fill="#fff"/>
  <rect y="100" width="1235" height="50" fill="#B22234"/>
  <rect y="150" width="1235" height="50" fill="#fff"/>
  <rect y="200" width="1235" height="50" fill="#B22234"/>
  <rect y="250" width="1235" height="50" fill="#fff"/>
  <rect y="300" width="1235" height="50" fill="#B22234"/>
  <rect y="350" width="1235" height="50" fill="#fff"/>
  <rect y="400" width="1235" height="50" fill="#B22234"/>
  <rect y="450" width="1235" height="50" fill="#fff"/>
  <rect y="500" width="1235" height="50" fill="#B22234"/>
  <rect y="550" width="1235" height="50" fill="#fff"/>
  <rect y="600" width="1235" height="50" fill="#B22234"/>
  
  <!-- Blue canton -->
  <rect width="494" height="350" fill="#3C3B6E"/>
  
  <!-- Stars (simplified 5-pointed stars pattern) -->
  <g fill="#fff">
    <!-- Row 1 - 6 stars -->
    <circle cx="40" cy="35" r="12"/><circle cx="122" cy="35" r="12"/><circle cx="204" cy="35" r="12"/>
    <circle cx="286" cy="35" r="12"/><circle cx="368" cy="35" r="12"/><circle cx="450" cy="35" r="12"/>
    <!-- Row 2 - 5 stars -->
    <circle cx="81" cy="70" r="12"/><circle cx="163" cy="70" r="12"/><circle cx="245" cy="70" r="12"/>
    <circle cx="327" cy="70" r="12"/><circle cx="409" cy="70" r="12"/>
    <!-- Row 3 - 6 stars -->
    <circle cx="40" cy="105" r="12"/><circle cx="122" cy="105" r="12"/><circle cx="204" cy="105" r="12"/>
    <circle cx="286" cy="105" r="12"/><circle cx="368" cy="105" r="12"/><circle cx="450" cy="105" r="12"/>
    <!-- Row 4 - 5 stars -->
    <circle cx="81" cy="140" r="12"/><circle cx="163" cy="140" r="12"/><circle cx="245" cy="140" r="12"/>
    <circle cx="327" cy="140" r="12"/><circle cx="409" cy="140" r="12"/>
    <!-- Row 5 - 6 stars -->
    <circle cx="40" cy="175" r="12"/><circle cx="122" cy="175" r="12"/><circle cx="204" cy="175" r="12"/>
    <circle cx="286" cy="175" r="12"/><circle cx="368" cy="175" r="12"/><circle cx="450" cy="175" r="12"/>
    <!-- Row 6 - 5 stars -->
    <circle cx="81" cy="210" r="12"/><circle cx="163" cy="210" r="12"/><circle cx="245" cy="210" r="12"/>
    <circle cx="327" cy="210" r="12"/><circle cx="409" cy="210" r="12"/>
    <!-- Row 7 - 6 stars -->
    <circle cx="40" cy="245" r="12"/><circle cx="122" cy="245" r="12"/><circle cx="204" cy="245" r="12"/>
    <circle cx="286" cy="245" r="12"/><circle cx="368" cy="245" r="12"/><circle cx="450" cy="245" r="12"/>
    <!-- Row 8 - 5 stars -->
    <circle cx="81" cy="280" r="12"/><circle cx="163" cy="280" r="12"/><circle cx="245" cy="280" r="12"/>
    <circle cx="327" cy="280" r="12"/><circle cx="409" cy="280" r="12"/>
    <!-- Row 9 - 6 stars -->
    <circle cx="40" cy="315" r="12"/><circle cx="122" cy="315" r="12"/><circle cx="204" cy="315" r="12"/>
    <circle cx="286" cy="315" r="12"/><circle cx="368" cy="315" r="12"/><circle cx="450" cy="315" r="12"/>
  </g>
</svg>
